<svg id="Layer_1" data-name="Layer 1" xmlns="http://www.w3.org/2000/svg" viewBox="0 0 86 56"><defs><style>.cls-1{fill:#474747;}.cls-2{fill:#818181;}.cls-3{fill:#666;}.cls-4{fill:#333;}</style></defs><rect class="cls-1" x="23.19" y="42.5" width="23.69" height="7.74" rx="2"/><polygon class="cls-1" points="40.44 16.51 29.61 16.51 29.61 20.42 31.62 20.42 33.16 21.96 33.16 27.67 36.9 27.67 36.9 21.96 38.44 20.42 40.44 20.42 40.44 16.51"/><rect class="cls-1" x="48.89" y="29.92" width="13.48" height="10.8"/><rect class="cls-2" x="17.61" y="24.65" width="34.84" height="21.59" rx="2"/><circle class="cls-3" cx="24.5" cy="14.65" r="8.89"/><circle class="cls-3" cx="45.56" cy="14.65" r="8.89"/><polygon class="cls-3" points="66.38 26.58 62.37 29.92 62.37 40.72 66.38 44.06 70.39 44.06 70.39 26.58 66.38 26.58"/><path class="cls-4" d="M85,1V55H1V1H85m0-1H1A1,1,0,0,0,0,1V55a1,1,0,0,0,1,1H85a1,1,0,0,0,1-1V1a1,1,0,0,0-1-1Z"/></svg>